<?xml version="1.0" standalone="no"?>
<!DOCTYPE svg PUBLIC "-//W3C//DTD SVG 20010904//EN"
 "http://www.w3.org/TR/2001/REC-SVG-20010904/DTD/svg10.dtd">
<svg version="1.0" xmlns="http://www.w3.org/2000/svg"
 width="300.000000pt" height="214.000000pt" viewBox="0 0 300.000000 214.000000"
 preserveAspectRatio="xMidYMid meet">
<metadata>
Created by potrace 1.10, written by Peter Selinger 2001-2011
</metadata>
<g transform="translate(0.000000,214.000000) scale(0.100000,-0.100000)"
fill="#000000" stroke="none">
<path d="M980 1922 c-204 -60 -378 -140 -427 -195 -35 -40 -113 -232 -162
-400 -50 -169 -97 -389 -127 -595 -27 -187 -27 -191 -9 -237 10 -26 35 -65 57
-85 87 -85 308 -219 461 -279 144 -57 175 -44 253 110 49 99 58 110 77 105 12
-3 72 -13 132 -22 135 -20 453 -15 584 10 47 9 86 15 87 13 1 -1 25 -48 52
-103 57 -114 87 -144 142 -144 91 0 401 162 548 287 98 83 106 123 72 353 -53
357 -149 714 -246 918 -31 64 -43 78 -93 111 -99 64 -375 164 -493 178 -81 10
-120 -28 -154 -144 -2 -9 -13 -10 -36 -5 -42 9 -373 9 -415 0 -31 -7 -32 -7
-47 45 -31 107 -93 126 -256 79z m169 -70 c5 -10 11 -31 13 -46 3 -27 0 -29
-100 -62 -57 -18 -134 -50 -173 -70 -60 -32 -69 -40 -69 -65 0 -45 27 -44 134
7 149 70 297 104 486 111 239 8 450 -34 624 -125 73 -38 98 -37 104 6 2 15 -8
28 -35 46 -51 34 -163 80 -246 102 l-69 19 6 34 c10 62 24 67 113 47 150 -35
362 -121 422 -171 62 -53 183 -418 247 -745 22 -112 54 -336 54 -376 0 -54
-23 -87 -102 -146 -125 -92 -290 -185 -400 -224 -70 -24 -74 -22 -123 76 -25
50 -43 95 -41 99 3 5 19 11 35 14 55 11 226 79 245 97 20 19 15 54 -9 64 -8 3
-47 -8 -87 -25 -200 -82 -374 -118 -616 -126 -281 -9 -479 22 -722 114 -113
43 -140 43 -140 -3 0 -21 9 -29 58 -51 31 -14 99 -39 149 -55 l93 -30 -48 -92
c-46 -90 -48 -91 -83 -90 -72 2 -380 172 -488 269 -61 56 -65 77 -41 251 39
277 103 542 189 784 57 157 76 189 136 222 110 60 384 155 452 157 12 1 27 -7
32 -17z"/>
<path d="M1465 1624 c-22 -23 -17 -113 8 -128 31 -19 52 4 55 63 4 73 -25 103
-63 65z"/>
<path d="M1255 1607 c-32 -24 -4 -137 34 -137 32 0 44 25 37 75 -7 41 -27 75
-45 75 -4 0 -15 -6 -26 -13z"/>
<path d="M1689 1610 c-25 -14 -45 -106 -28 -126 18 -21 52 -13 65 16 23 49 26
87 9 104 -19 18 -24 19 -46 6z"/>
<path d="M1046 1547 c-22 -16 -18 -43 14 -95 16 -27 26 -33 48 -30 36 4 40 40
9 93 -25 44 -43 52 -71 32z"/>
<path d="M1888 1546 c-8 -7 -22 -32 -32 -54 -15 -34 -17 -44 -6 -57 24 -29 58
-18 80 25 23 45 25 71 8 88 -16 16 -33 15 -50 -2z"/>
<path d="M1027 1206 c-100 -36 -168 -141 -170 -263 -2 -173 137 -308 284 -273
70 17 141 83 169 158 45 118 9 272 -78 339 -67 51 -135 64 -205 39z m110 -77
c151 -57 149 -329 -4 -380 -96 -31 -195 65 -195 190 0 88 32 149 95 183 37 20
65 22 104 7z"/>
<path d="M1828 1206 c-81 -29 -137 -90 -163 -179 -27 -92 -11 -188 44 -265
135 -185 399 -88 419 154 7 93 -19 166 -83 231 -71 70 -136 88 -217 59z m151
-104 c89 -72 94 -229 10 -313 -50 -50 -96 -58 -157 -27 -75 37 -117 144 -93
234 35 130 148 180 240 106z"/>
<path d="M1101 241 c-17 -31 9 -51 84 -67 99 -21 299 -36 378 -28 61 6 68 9
73 31 4 13 2 29 -4 35 -5 5 -77 11 -158 13 -82 2 -187 11 -234 19 -109 20
-127 20 -139 -3z"/>
<path d="M1760 247 c-38 -10 -46 -16 -48 -39 -5 -42 23 -51 104 -30 66 16 69
18 69 47 0 28 -3 30 -40 32 -22 1 -60 -4 -85 -10z"/>
</g>
</svg>
