<?xml version="1.0" standalone="no"?>
<!DOCTYPE svg PUBLIC "-//W3C//DTD SVG 20010904//EN"
 "http://www.w3.org/TR/2001/REC-SVG-20010904/DTD/svg10.dtd">
<svg version="1.0" xmlns="http://www.w3.org/2000/svg"
 width="702.000000pt" height="762.000000pt" viewBox="0 0 702.000000 762.000000"
 preserveAspectRatio="xMidYMid meet">
<metadata>
Created by potrace 1.10, written by Peter Selinger 2001-2011
</metadata>
<g transform="translate(0.000000,762.000000) scale(0.100000,-0.100000)"
fill="#000000" stroke="none">
<path d="M2721 6916 c-12 -15 -6 -62 10 -72 5 -3 9 -12 9 -21 0 -8 6 -29 14
-46 8 -18 22 -49 30 -70 8 -20 31 -61 51 -91 19 -29 35 -56 35 -60 0 -4 11
-22 23 -39 28 -38 67 -113 67 -129 0 -6 11 -25 24 -42 13 -17 27 -42 31 -56 4
-13 14 -30 21 -38 8 -7 14 -22 14 -32 0 -11 6 -34 14 -52 45 -108 60 -203 60
-383 -1 -126 -24 -199 -120 -375 -33 -62 -114 -256 -114 -275 0 -23 25 -18 38
8 7 12 16 29 22 37 5 8 32 62 59 120 28 58 59 118 70 133 l18 29 7 -26 c8 -33
-4 -155 -15 -162 -5 -3 -9 -16 -9 -29 0 -29 -40 -125 -52 -125 -14 0 -8 32 12
65 16 26 18 38 10 60 -12 31 -30 25 -30 -10 0 -13 -4 -26 -9 -29 -5 -3 -12
-18 -16 -33 -3 -15 -13 -35 -21 -43 -27 -29 -104 -138 -104 -148 0 -5 -16 -19
-35 -31 -25 -15 -35 -27 -35 -45 0 -14 -16 -58 -36 -98 -39 -80 -58 -174 -33
-166 8 3 15 16 15 29 1 13 9 38 18 54 9 17 16 38 16 47 0 9 4 18 8 20 9 4 52
76 52 88 0 5 14 24 30 42 17 18 30 37 30 43 0 7 11 22 24 34 13 13 37 43 52
67 15 24 32 44 36 44 14 0 9 -40 -6 -46 -7 -3 -22 -25 -32 -50 -10 -24 -21
-44 -25 -44 -7 0 -109 -155 -109 -167 0 -3 -6 -14 -14 -22 -32 -37 -82 -259
-62 -278 9 -10 26 9 26 28 0 10 4 27 9 37 5 9 17 46 27 82 10 36 23 72 29 80
6 8 17 29 24 46 6 17 34 62 61 100 28 38 60 87 71 109 12 22 24 42 28 45 11 9
71 136 71 151 0 8 5 20 11 26 11 11 42 250 33 264 -3 5 -11 9 -19 9 -8 0 -17
5 -20 10 -6 10 24 101 48 145 13 24 18 274 6 337 -4 24 -15 70 -24 103 -9 33
-20 77 -24 97 -5 21 -12 43 -18 50 -5 7 -19 40 -31 73 -25 65 -68 151 -87 175
-7 8 -16 26 -20 40 -4 14 -16 34 -26 45 -10 11 -35 54 -55 95 -20 41 -48 98
-62 125 -14 28 -29 70 -34 94 -9 51 -7 47 -34 55 -13 4 -26 1 -33 -8z"/>
<path d="M2602 6787 c-6 -7 -16 -53 -22 -102 -7 -50 -17 -96 -23 -103 -6 -7
-18 -34 -27 -60 -26 -71 -64 -156 -75 -168 -16 -17 -91 -172 -115 -239 -13
-33 -26 -69 -31 -80 -26 -63 -32 -323 -10 -425 19 -91 32 -136 46 -167 8 -17
15 -35 15 -41 0 -5 7 -15 16 -23 14 -11 80 -105 129 -184 11 -17 28 -40 38
-49 23 -24 64 -112 72 -158 7 -35 5 -38 -16 -38 -19 0 -29 12 -52 60 -36 77
-121 176 -242 281 -52 46 -95 88 -95 93 0 5 -11 21 -24 35 -32 34 -66 100 -66
128 0 12 -4 24 -9 28 -5 3 -12 20 -16 38 -9 42 -36 118 -50 140 -9 12 -10 32
-4 64 13 65 -17 96 -53 56 -12 -14 -16 -45 -17 -127 -1 -61 -4 -120 -7 -132
-6 -23 7 -121 28 -219 13 -62 46 -152 68 -185 9 -14 29 -50 45 -80 15 -30 38
-68 51 -83 13 -16 24 -34 24 -41 0 -7 14 -25 30 -41 17 -16 30 -32 30 -37 0
-4 43 -50 95 -102 102 -100 138 -146 149 -190 4 -15 12 -26 19 -23 16 5 10 57
-9 78 -8 8 -14 21 -14 27 0 6 -13 27 -30 45 -16 19 -30 38 -30 41 0 4 -20 26
-43 49 -59 57 -167 183 -167 194 0 12 -31 73 -56 109 -19 26 -39 67 -79 159
-19 43 -25 87 -14 108 13 24 29 12 29 -21 0 -15 7 -36 15 -46 8 -11 15 -30 15
-42 0 -12 13 -37 30 -55 16 -19 30 -38 30 -44 0 -11 63 -78 125 -135 22 -20
33 -36 25 -38 -6 -2 -17 1 -23 7 -16 16 -57 14 -57 -3 0 -8 10 -18 21 -21 18
-6 61 -41 99 -81 54 -57 80 -89 80 -100 0 -8 13 -26 29 -40 17 -15 33 -39 36
-55 4 -16 10 -29 14 -29 4 0 12 -12 18 -27 l11 -28 1 28 c1 15 -3 27 -9 27 -5
0 -10 13 -10 29 0 18 -11 40 -30 59 -20 21 -30 42 -30 62 0 36 17 39 30 5 11
-30 30 -33 30 -5 0 11 -13 32 -30 47 -16 14 -30 31 -30 37 0 12 -1 13 -156
174 -144 149 -168 176 -175 204 -13 43 -11 50 11 38 11 -6 20 -16 20 -21 0 -6
28 -37 61 -68 151 -138 239 -225 239 -235 0 -6 19 -32 43 -57 24 -26 52 -69
63 -95 10 -27 20 -52 22 -55 2 -4 -7 -9 -19 -12 -18 -5 -20 -10 -14 -34 3 -15
15 -37 25 -48 10 -11 23 -37 28 -58 9 -33 8 -40 -9 -55 -21 -18 -25 -53 -8
-84 15 -28 38 -126 38 -158 l0 -25 -16 23 c-8 12 -23 22 -33 22 -18 0 -30 19
-30 46 0 17 -50 83 -92 123 -16 14 -28 31 -28 38 0 7 -35 48 -78 91 -67 66
-91 82 -163 111 -46 19 -89 38 -95 43 -6 5 -18 6 -27 2 -21 -8 -56 12 -90 50
-58 66 -117 145 -117 158 0 7 -11 30 -25 50 -25 38 -33 64 -15 53 5 -3 48 -50
94 -103 46 -53 102 -108 125 -122 23 -14 57 -35 76 -47 18 -12 36 -19 39 -15
17 16 0 42 -55 82 -98 72 -189 173 -272 303 -28 43 -42 57 -61 57 -13 0 -26
-7 -30 -15 -17 -44 24 -184 70 -238 13 -16 24 -37 24 -48 0 -10 4 -19 8 -19 5
0 14 -12 21 -26 19 -43 87 -118 159 -175 37 -29 74 -59 82 -66 14 -13 38 -30
182 -133 69 -49 178 -156 178 -174 0 -6 12 -23 28 -37 15 -14 32 -34 39 -44
11 -19 12 -18 24 14 l12 34 45 -94 c55 -116 82 -208 81 -274 -1 -48 -1 -49
-11 -20 -6 17 -26 48 -45 71 -22 27 -33 52 -33 73 0 17 -4 31 -10 31 -5 0 -18
17 -29 38 -19 35 -66 81 -141 132 -19 13 -39 30 -45 36 -11 13 -50 38 -129 80
-62 33 -65 35 -144 117 -58 60 -70 68 -94 63 -29 -6 -58 14 -58 39 0 7 -11 27
-25 43 -14 17 -25 33 -25 37 0 4 -8 26 -19 49 -41 90 -51 118 -51 139 0 12 -9
33 -19 46 -35 46 -68 2 -39 -52 7 -12 24 -56 39 -97 44 -123 53 -142 96 -210
88 -139 176 -224 358 -347 160 -108 197 -135 235 -173 21 -21 44 -42 53 -46 8
-5 40 -39 72 -76 54 -64 62 -88 29 -88 -25 0 -15 -18 31 -57 27 -23 45 -46 45
-58 0 -30 -11 -37 -29 -20 -95 87 -116 105 -125 105 -5 0 -17 7 -25 15 -15 13
-186 106 -256 139 -16 8 -45 26 -64 40 -19 14 -40 26 -45 26 -10 1 -40 34
-137 152 -17 21 -31 29 -42 25 -22 -8 -21 -33 2 -56 10 -10 23 -25 27 -33 8
-13 89 -87 141 -129 33 -26 150 -93 253 -143 107 -52 120 -60 171 -98 20 -16
42 -28 48 -28 6 0 11 -4 11 -9 0 -5 23 -31 51 -58 57 -54 82 -94 73 -117 -5
-13 -11 -12 -37 7 -18 12 -34 27 -36 32 -18 43 -288 235 -332 235 -4 0 -28 14
-52 30 -25 17 -47 30 -51 30 -8 0 -90 53 -131 86 -84 66 -195 192 -195 220 0
7 -17 45 -37 86 -26 50 -41 98 -50 153 -15 105 -37 207 -47 223 -4 6 -16 12
-28 12 -18 0 -19 -5 -14 -42 3 -24 10 -85 16 -137 6 -52 14 -99 19 -105 5 -6
12 -29 16 -51 4 -22 10 -44 14 -50 5 -5 13 -24 19 -42 16 -50 107 -176 161
-224 103 -93 158 -130 286 -194 44 -22 82 -42 85 -45 3 -3 23 -14 44 -25 47
-24 121 -72 156 -102 139 -117 175 -151 210 -195 45 -57 48 -68 20 -68 -32 0
-23 -26 20 -61 41 -34 50 -56 26 -65 -18 -7 -53 11 -88 46 -36 37 -129 84
-225 115 -43 14 -102 37 -131 50 -29 14 -56 25 -60 25 -15 0 -120 60 -152 87
-66 55 -111 103 -105 113 7 11 69 -12 95 -35 18 -16 151 -85 165 -85 5 0 32
-11 60 -25 27 -13 90 -41 139 -61 49 -20 115 -52 145 -70 60 -37 94 -46 67
-18 -9 8 -16 19 -16 23 0 9 -133 101 -145 101 -4 0 -21 6 -38 14 -18 7 -88 37
-157 66 -69 29 -163 74 -209 99 -46 25 -102 56 -125 69 -22 12 -46 29 -52 37
-6 8 -15 15 -20 15 -19 1 -66 48 -59 60 5 8 13 6 29 -8 11 -11 37 -28 56 -37
18 -10 40 -24 48 -31 7 -8 21 -14 30 -14 10 0 26 -6 37 -14 11 -7 45 -21 75
-31 30 -10 111 -47 180 -81 80 -40 128 -60 134 -54 17 17 -32 52 -146 106 -32
15 -58 30 -58 34 0 4 -10 10 -22 13 -82 18 -214 76 -282 124 -17 12 -47 31
-66 42 -19 11 -55 38 -79 61 -32 31 -50 40 -70 38 -21 -2 -27 -9 -29 -34 -3
-27 5 -39 57 -86 59 -53 61 -56 61 -105 0 -28 11 -86 25 -129 32 -97 147 -333
175 -359 11 -10 20 -22 20 -28 0 -5 32 -41 72 -81 61 -61 68 -71 50 -74 -29
-4 -28 -34 1 -65 12 -13 49 -54 82 -92 33 -38 67 -76 75 -84 24 -25 187 -151
196 -151 4 0 15 -7 24 -15 22 -20 195 -105 214 -105 8 0 17 -4 20 -8 3 -5 43
-27 90 -50 46 -23 97 -53 114 -67 34 -28 52 -32 52 -11 0 27 -113 103 -253
170 -76 36 -141 66 -143 66 -3 0 -51 30 -107 66 -123 80 -317 269 -317 308 0
3 9 6 20 6 11 0 20 -6 20 -14 0 -7 12 -22 27 -32 15 -9 34 -26 43 -35 8 -10
29 -29 47 -41 17 -13 58 -43 90 -68 96 -74 152 -109 278 -174 66 -35 156 -86
199 -114 44 -29 85 -52 91 -52 6 0 22 -12 37 -27 14 -16 47 -48 72 -73 57 -55
106 -124 106 -151 0 -10 -3 -19 -7 -19 -8 0 -75 50 -88 66 -5 7 -30 23 -55 35
-25 13 -51 29 -58 36 -7 7 -18 13 -25 13 -10 0 -339 157 -377 180 -8 5 -37 21
-65 35 -84 43 -120 68 -169 118 -29 30 -53 47 -61 43 -25 -9 -17 -25 33 -74
84 -83 110 -101 280 -186 318 -159 342 -172 483 -250 84 -47 218 -165 286
-253 40 -52 -1 -77 -46 -29 -13 14 -38 32 -55 41 -17 8 -38 20 -46 24 -8 5
-31 16 -50 24 -19 8 -55 24 -80 35 -25 10 -70 27 -100 38 -30 10 -59 22 -64
26 -6 4 -16 8 -24 8 -8 0 -28 6 -45 14 -18 7 -78 31 -134 51 -57 21 -103 40
-103 44 0 4 -17 15 -37 26 -47 24 -242 218 -266 265 -10 19 -33 61 -52 94 -19
32 -35 66 -36 75 0 9 -14 36 -30 61 -16 25 -37 58 -47 74 -9 16 -29 44 -44 61
-16 18 -28 37 -28 42 0 5 -13 22 -30 38 -16 16 -30 34 -30 40 0 19 -47 57 -67
53 -27 -5 -24 -50 5 -63 13 -5 25 -20 29 -33 3 -12 15 -30 27 -40 13 -9 29
-29 37 -44 8 -14 42 -72 77 -128 34 -57 62 -106 62 -109 1 -3 9 -24 20 -46 11
-22 19 -45 20 -51 0 -6 10 -19 21 -30 12 -10 28 -34 36 -53 8 -18 22 -35 33
-38 20 -5 33 -50 18 -59 -16 -10 1 -55 35 -97 58 -71 131 -143 177 -174 49
-33 165 -89 207 -100 15 -3 38 -12 52 -19 14 -8 60 -21 101 -29 41 -8 94 -20
118 -25 23 -6 51 -10 62 -10 11 0 39 -6 62 -14 24 -7 88 -28 143 -45 134 -43
241 -100 237 -126 -2 -11 -10 -25 -18 -31 -18 -14 -7 -24 26 -24 15 0 33 -7
40 -15 7 -8 18 -15 24 -15 15 -1 56 -36 56 -49 0 -21 -76 -12 -121 14 -107 63
-116 66 -128 51 -10 -12 -88 -14 -161 -4 -8 1 -32 -1 -52 -6 -22 -5 -43 -4
-55 3 -16 9 -14 11 14 17 18 3 38 13 44 20 16 19 46 18 57 -3 7 -12 18 -14 39
-10 17 3 35 1 40 -4 6 -6 19 -6 36 0 40 15 34 33 -8 25 -28 -5 -35 -3 -35 10
0 12 -6 15 -25 10 -14 -4 -32 -1 -40 6 -16 13 -65 6 -65 -10 0 -6 -10 -10 -22
-10 -39 0 -102 -24 -124 -46 -12 -12 -52 -31 -90 -43 -38 -12 -97 -36 -132
-53 -34 -17 -65 -28 -68 -25 -9 9 15 47 30 47 7 0 21 9 31 21 28 30 235 129
272 129 18 0 52 6 75 14 50 17 152 16 170 -2 14 -14 88 -16 88 -2 0 6 -8 10
-18 10 -10 0 -35 9 -57 20 -26 13 -59 20 -96 20 -69 0 -89 7 -89 30 0 22 -37
30 -142 30 -76 0 -118 -9 -226 -49 -46 -17 -117 -82 -227 -206 -83 -93 -131
-140 -165 -162 -44 -27 -71 -69 -64 -97 6 -25 7 -26 93 -22 96 4 153 20 197
54 47 37 94 68 164 108 36 21 72 42 80 49 29 21 205 70 220 60 5 -3 31 0 57 7
56 16 215 15 256 -1 16 -6 50 -11 76 -11 31 0 53 -5 61 -15 7 -8 22 -15 34
-15 28 0 49 -14 52 -34 3 -21 44 -55 66 -56 20 0 97 -34 122 -54 10 -8 15 -19
11 -25 -8 -13 -52 -14 -60 -2 -3 5 -38 20 -78 33 -63 20 -90 23 -217 22 -126
-1 -152 -4 -200 -24 -32 -13 -97 -28 -156 -34 -67 -7 -106 -16 -116 -27 -9 -9
-38 -22 -65 -29 -26 -7 -62 -24 -80 -36 -17 -13 -42 -28 -55 -33 -37 -14 -88
-61 -88 -81 0 -37 53 -29 100 14 69 64 278 130 365 116 183 -29 328 -78 428
-145 120 -80 267 -145 329 -145 31 0 37 -14 11 -24 -20 -8 -123 3 -138 14 -5
4 -25 10 -44 14 -31 6 -139 57 -263 124 -83 46 -89 48 -133 66 -98 38 -192 47
-300 27 -84 -15 -138 -40 -143 -65 -5 -25 13 -42 30 -29 7 6 46 21 87 33 62
19 88 22 160 17 84 -6 125 -19 231 -76 161 -86 274 -141 290 -141 10 0 21 -4
24 -9 8 -12 83 -23 181 -26 86 -4 152 10 228 45 l47 22 43 -38 c23 -21 50 -45
61 -54 10 -8 29 -24 41 -35 13 -11 53 -45 91 -75 37 -30 95 -78 128 -105 34
-28 88 -70 121 -95 33 -24 74 -57 92 -73 l32 -30 60 19 c73 23 79 43 21 79
-22 14 -42 25 -46 25 -9 0 -251 162 -309 207 -60 47 -76 82 -53 121 8 15 18
44 22 64 12 64 58 137 133 211 10 9 70 68 133 130 158 154 180 183 256 336 34
68 37 168 7 209 -11 15 -22 35 -26 45 -4 10 -11 15 -17 12 -14 -8 -13 -51 2
-74 9 -14 9 -35 0 -89 -22 -130 -102 -252 -272 -416 -113 -108 -190 -189 -190
-200 0 -4 -14 -25 -31 -47 -16 -21 -33 -54 -36 -74 -3 -19 -10 -38 -14 -41 -5
-3 -9 -25 -9 -49 0 -24 -4 -46 -10 -50 -16 -10 -48 17 -67 59 -17 39 -20 41
-55 38 -33 -3 -39 0 -48 24 -12 31 -37 53 -62 54 -23 0 -99 130 -92 157 3 11
-2 44 -10 73 -20 66 -20 144 -1 275 19 131 19 147 -1 143 -29 -6 -51 -105 -60
-258 -3 -61 13 -144 33 -175 17 -26 17 -75 -1 -75 -7 0 -43 30 -78 66 -61 62
-66 71 -72 122 -4 30 -2 59 2 66 5 6 12 37 15 69 3 32 10 64 15 70 5 7 13 27
17 46 12 56 56 131 150 256 127 169 131 174 167 235 50 84 68 145 73 250 4 76
1 97 -12 112 -11 12 -13 26 -9 45 15 56 26 199 20 245 -4 30 -14 54 -30 69
l-24 22 -9 -24 c-5 -16 -5 -33 3 -49 20 -45 3 -260 -24 -295 -4 -5 -11 -34
-15 -62 -4 -29 -11 -55 -16 -59 -5 -3 -9 -14 -9 -24 0 -32 -106 -235 -145
-276 -5 -7 -28 -35 -50 -64 -22 -29 -47 -60 -55 -69 -115 -124 -182 -270 -163
-361 6 -31 7 -32 20 -15 7 11 13 29 13 41 0 13 5 26 10 29 6 3 10 16 10 29 0
37 58 135 134 226 90 107 124 151 158 203 50 77 138 270 138 301 0 9 5 16 10
16 16 0 11 -81 -9 -140 -34 -100 -90 -193 -158 -268 -13 -14 -23 -28 -23 -32
0 -4 -12 -21 -27 -38 -114 -126 -142 -180 -204 -388 -5 -17 -9 -56 -9 -87 0
-31 -5 -59 -10 -62 -14 -9 -90 72 -90 96 0 36 -19 59 -50 59 -34 0 -63 36 -75
90 -9 43 -32 90 -44 90 -5 0 -12 -8 -16 -17 -6 -16 -8 -15 -17 7 -13 34 -14
346 0 395 6 22 15 56 21 75 18 66 48 135 139 320 88 179 132 288 132 329 0 11
7 24 16 29 9 5 14 14 10 21 -14 22 -37 10 -52 -26 -8 -21 -19 -46 -24 -55 -6
-10 -10 -23 -10 -28 0 -11 -112 -250 -131 -280 -5 -8 -14 -26 -19 -40 -6 -14
-20 -43 -31 -65 -32 -61 -89 -225 -89 -256 0 -15 -5 -31 -11 -35 -7 -4 -9 -21
-5 -45 4 -24 2 -39 -4 -39 -12 0 -2 -139 10 -155 5 -5 11 -27 15 -47 6 -33 5
-38 -12 -38 -12 0 -31 19 -54 56 -18 30 -46 72 -61 91 -27 34 -28 40 -29 157
0 66 -1 173 -3 236 -2 123 11 279 25 295 10 10 13 85 4 85 -3 0 -14 -8 -25
-17 -18 -17 -31 -66 -50 -183 -11 -65 -3 -295 10 -321 12 -22 13 -69 2 -69 -5
0 -18 11 -31 26 -19 21 -23 40 -27 132 -3 59 -5 114 -5 122 8 133 15 175 46
267 19 57 35 110 35 119 0 28 32 118 71 202 21 46 39 88 39 94 0 6 6 19 13 27
7 9 22 36 32 61 24 56 56 101 67 94 4 -3 8 -45 8 -95 0 -53 4 -89 10 -89 6 0
10 -13 10 -30 0 -16 -5 -30 -10 -30 -6 0 -4 -12 4 -28 16 -31 19 -179 4 -188
-5 -3 -6 -19 -3 -35 4 -17 2 -35 -3 -42 -6 -7 -12 -22 -14 -35 -5 -35 -23 -31
-26 6 -2 18 1 32 8 32 6 0 8 10 4 25 -3 14 -2 31 4 38 13 16 13 166 0 191 -7
12 -6 22 1 29 6 6 11 24 11 39 0 21 -5 28 -20 28 -31 0 -38 -32 -38 -175 -1
-197 -19 -339 -52 -410 -10 -22 -21 -50 -25 -63 -6 -20 -4 -23 17 -20 21 3 23
0 20 -32 -1 -19 -6 -44 -11 -55 -13 -27 -27 -147 -27 -220 1 -51 4 -60 21 -63
16 -3 18 -1 8 9 -15 15 -17 43 -3 67 5 9 13 42 19 72 13 78 35 161 49 187 7
12 12 31 12 43 0 12 6 34 14 48 26 50 67 212 80 320 13 106 11 170 -12 382
-14 119 -2 211 36 285 17 33 40 89 51 124 11 35 25 69 30 75 20 25 34 121 41
286 8 194 6 220 -20 220 -23 0 -30 -19 -30 -81 0 -30 -8 -65 -20 -89 -11 -22
-20 -53 -20 -71 0 -17 -6 -43 -14 -57 -8 -15 -18 -48 -21 -74 -3 -26 -10 -50
-16 -53 -5 -4 -9 -14 -9 -24 0 -9 -9 -36 -20 -59 -11 -22 -20 -46 -20 -52 0
-6 -7 -22 -16 -35 -13 -19 -20 -23 -34 -15 -15 8 -19 5 -24 -15 -4 -14 -11
-25 -17 -25 -5 0 -19 -21 -30 -46 -11 -25 -27 -48 -35 -51 -8 -3 -14 -12 -14
-19 0 -8 -7 -17 -16 -21 -9 -3 -14 -13 -11 -23 3 -12 -4 -22 -19 -29 -14 -6
-24 -19 -24 -31 0 -37 28 -21 51 30 12 28 29 50 37 50 8 0 16 9 19 20 3 11 9
20 14 20 5 0 9 9 9 20 0 10 9 24 21 30 25 14 41 3 16 -11 -9 -6 -17 -17 -17
-24 0 -8 -4 -15 -10 -15 -5 0 -10 -9 -10 -19 0 -11 -12 -39 -27 -63 -42 -66
-51 -79 -78 -128 -14 -25 -29 -52 -34 -60 -5 -8 -17 -33 -26 -55 -9 -22 -23
-53 -30 -70 -50 -111 -98 -254 -115 -345 -17 -89 -27 -226 -19 -278 11 -78
-26 -67 -71 22 -34 69 -58 201 -42 234 5 9 12 46 16 82 4 36 14 90 22 120 26
90 91 259 115 300 5 8 13 25 19 38 14 31 30 27 30 -8 0 -16 -4 -30 -9 -30 -4
0 -11 -25 -15 -57 -4 -34 -23 -90 -47 -142 -23 -47 -43 -101 -46 -121 -2 -19
-9 -44 -14 -55 -11 -26 -25 -150 -21 -193 6 -60 27 -30 28 40 1 36 5 71 9 78
5 7 14 38 21 69 16 75 42 142 111 287 8 16 13 48 12 70 -3 42 33 132 58 147
10 6 12 18 8 37 -4 18 -2 31 7 37 7 4 22 24 32 43 11 19 30 47 42 62 12 16 26
37 29 49 4 12 15 29 25 39 26 26 115 211 144 300 75 231 102 505 63 635 -10
33 -23 78 -29 100 -11 42 -29 91 -60 162 -10 23 -18 47 -18 52 0 18 -68 118
-85 125 -28 10 -35 7 -35 -17 0 -24 23 -75 56 -123 12 -16 31 -56 44 -89 12
-33 26 -68 31 -77 9 -18 21 -60 43 -159 13 -57 12 -290 -1 -339 -3 -14 -8 -34
-9 -45 -13 -92 -42 -197 -76 -275 -40 -90 -133 -275 -140 -278 -5 -2 -8 -10
-8 -17 0 -8 -11 -25 -25 -39 -29 -29 -32 -17 -10 44 8 23 12 46 9 51 -9 15
-34 10 -34 -7 0 -32 -78 -201 -128 -278 -29 -43 -52 -84 -52 -92 0 -7 -6 -19
-13 -26 -7 -7 -23 -38 -35 -68 -13 -30 -27 -64 -31 -75 -44 -103 -65 -207 -64
-305 3 -143 -15 -158 -52 -44 -13 38 -39 104 -58 145 -19 40 -54 118 -77 172
-41 95 -42 100 -30 140 8 23 17 46 22 52 4 5 8 36 8 70 1 37 6 67 15 79 8 11
15 28 15 38 0 19 37 95 51 104 5 3 9 12 9 21 0 8 12 32 28 52 15 20 32 43 37
52 22 35 79 107 130 164 29 33 75 85 100 115 26 30 58 67 71 82 13 14 24 33
24 41 0 9 14 31 30 49 17 18 30 43 30 56 0 12 6 25 14 28 8 3 17 25 21 50 8
55 19 57 22 4 2 -28 -2 -43 -12 -46 -8 -4 -15 -14 -15 -23 0 -9 -7 -29 -15
-45 -8 -15 -15 -34 -15 -41 0 -7 -7 -18 -16 -26 -8 -7 -24 -29 -35 -48 -22
-39 -55 -87 -97 -140 -15 -18 -42 -52 -60 -75 -19 -22 -56 -65 -83 -94 -65
-70 -126 -154 -150 -205 -11 -23 -23 -49 -28 -57 -16 -29 -34 -85 -38 -122 -4
-29 -1 -39 11 -44 26 -10 43 13 50 69 11 93 66 183 199 327 86 92 187 221 187
238 0 6 6 15 14 19 16 10 53 72 100 168 80 163 121 371 105 529 -15 153 -52
107 -50 -62 2 -90 0 -106 -19 -132 -12 -17 -27 -30 -34 -30 -13 0 -26 -42 -26
-85 0 -13 -3 -25 -7 -27 -9 -4 -53 -108 -53 -126 0 -6 -4 -12 -9 -12 -5 0 -19
-20 -31 -43 -12 -24 -37 -61 -56 -81 -19 -20 -34 -41 -34 -46 0 -5 -8 -11 -18
-14 -9 -3 -24 -17 -32 -30 -8 -13 -37 -48 -65 -78 -100 -107 -164 -197 -227
-318 -49 -95 -68 -157 -69 -230 -1 -50 -6 -69 -20 -83 -11 -10 -24 -15 -29
-12 -6 3 -10 48 -10 99 0 71 4 97 15 106 8 7 15 23 15 36 0 14 4 32 9 42 6 9
21 42 34 73 41 94 81 152 206 294 10 11 28 36 42 55 13 19 34 46 47 60 12 13
22 32 22 42 0 9 6 21 13 25 8 4 21 23 30 41 9 17 24 45 32 61 8 16 15 38 15
49 0 12 4 23 9 26 5 3 15 30 22 58 6 29 16 60 20 68 12 23 30 167 23 185 -4 8
-1 21 5 28 33 41 9 478 -35 627 -9 30 -20 62 -24 70 -4 9 -11 31 -15 50 -4 19
-11 40 -15 45 -4 6 -10 24 -14 40 -4 17 -18 53 -31 80 -13 28 -26 67 -30 88
-8 42 -17 51 -45 42 -24 -7 -31 -29 -36 -108 -2 -34 -6 -80 -10 -103 -4 -30
-2 -43 10 -53 28 -24 46 -6 46 46 0 71 16 87 30 32 7 -24 20 -69 30 -99 10
-30 23 -77 29 -105 6 -27 18 -81 27 -120 16 -70 30 -179 40 -310 6 -93 6 -93
1 -220 -6 -128 -16 -203 -28 -211 -5 -3 -9 -15 -9 -27 -1 -41 -59 -184 -94
-232 -12 -16 -25 -37 -28 -45 -7 -18 -132 -179 -157 -200 -32 -29 -118 -150
-144 -202 -48 -101 -57 -129 -57 -182 0 -47 -3 -54 -22 -59 -12 -3 -25 -4 -30
-1 -11 7 -10 92 2 99 6 3 10 19 10 34 0 42 109 238 154 275 34 29 157 179 199
242 100 153 133 247 161 458 10 75 -26 173 -50 134 -4 -6 -7 -66 -8 -133 -1
-73 -5 -128 -12 -136 -6 -8 -14 -35 -17 -61 -7 -50 -44 -125 -113 -229 -24
-36 -44 -67 -44 -70 0 -6 -87 -103 -162 -182 -21 -22 -38 -45 -38 -52 0 -7 -6
-18 -14 -25 -15 -11 -62 -126 -68 -165 -2 -12 -11 -20 -23 -20 -15 0 -22 12
-32 60 -8 33 -18 74 -23 91 -14 44 -21 256 -9 270 5 7 12 35 16 63 3 28 12 56
19 62 8 6 14 20 14 30 0 11 7 19 15 19 19 0 19 -23 1 -58 -18 -37 -29 -168
-16 -193 17 -32 27 -14 35 61 4 39 11 73 16 76 5 3 9 15 9 27 0 12 7 35 15 51
8 15 15 35 15 42 0 8 7 17 15 20 8 3 25 22 37 42 12 21 28 43 35 51 22 22 119
174 136 211 32 75 47 122 47 150 0 39 18 48 30 15 13 -35 29 -28 46 20 27 75
23 289 -9 479 -15 87 -27 109 -53 99 -22 -8 -25 -36 -9 -93 9 -30 19 -76 22
-102 5 -42 2 -50 -25 -79 -30 -32 -30 -32 -31 -158 -1 -119 -6 -148 -41 -246
-20 -57 -67 -146 -101 -192 -22 -29 -39 -57 -39 -63 0 -5 -6 -10 -13 -10 -8 0
-24 -20 -36 -45 -22 -44 -41 -59 -41 -31 0 7 7 19 15 26 8 7 15 17 15 22 0 6
14 30 30 55 17 24 30 48 30 52 0 4 14 27 30 49 17 23 30 46 30 51 0 5 14 36
30 69 17 34 30 76 30 95 0 19 7 40 15 47 23 19 15 54 -12 58 -15 2 -23 -2 -23
-11 0 -52 -99 -276 -167 -377 -12 -19 -23 -39 -23 -44 0 -5 -6 -17 -14 -25
-21 -24 -74 -128 -87 -170 -6 -20 -13 -56 -15 -80 -5 -53 -6 -55 -34 -46 -20
6 -22 12 -16 49 21 138 21 145 -8 156 -26 10 -27 12 -19 57 4 27 8 84 8 128
l0 80 -29 -3 c-26 -3 -28 -1 -17 12 11 13 11 19 1 31 -10 12 -8 25 13 67 14
29 29 71 33 93 3 22 10 45 14 50 4 6 11 30 14 55 4 25 11 54 15 65 5 11 18 47
30 80 12 33 35 88 52 123 16 34 29 68 29 76 0 7 6 19 14 25 8 7 17 24 21 38 3
15 15 44 25 65 18 37 18 38 -1 38 -14 0 -33 -31 -78 -123 -33 -67 -63 -136
-67 -152 -4 -17 -13 -39 -20 -50 -8 -11 -14 -38 -14 -61 0 -25 -6 -47 -15 -54
-10 -8 -15 -31 -15 -66 0 -29 -4 -55 -9 -59 -5 -3 -12 -19 -16 -35 -8 -37 -22
-38 -35 -5 -7 17 -6 40 1 68 14 56 38 178 39 199 0 11 -6 15 -20 11 -18 -5
-20 0 -20 41 0 26 6 59 14 74 7 15 16 45 19 67 5 33 3 44 -13 58 -27 23 -30
151 -3 166 14 7 15 12 5 24 -10 11 -8 49 7 178 10 90 19 173 20 184 9 140 23
254 31 271 16 29 18 146 3 151 -31 11 -76 -179 -87 -367 -5 -76 -15 -130 -26
-130 -4 0 -13 6 -19 13 -24 30 8 409 40 468 5 10 9 28 9 41 0 13 5 29 11 35
18 18 24 194 9 266 -13 62 -41 131 -59 141 -5 3 -13 0 -19 -7z m38 -172 c14
-17 -1 -157 -25 -235 -51 -164 -68 -302 -54 -428 9 -80 16 -104 40 -140 28
-41 29 -46 29 -162 0 -109 -2 -120 -20 -130 -26 -14 -25 -39 1 -100 12 -27 18
-57 15 -67 -6 -15 -8 -15 -26 3 -23 24 -90 151 -90 173 0 9 -7 25 -15 35 -8
11 -15 30 -15 42 0 12 -7 35 -15 50 -8 16 -15 40 -15 54 0 14 -4 32 -9 39 -6
9 -6 22 -1 32 6 10 5 31 -1 54 -17 62 30 331 62 351 5 3 9 19 9 36 0 27 -2 30
-25 24 -14 -4 -25 -4 -25 -2 0 2 27 57 60 121 33 64 60 125 60 135 0 11 4 22
10 25 5 3 12 28 16 55 7 53 14 60 34 35z m-190 -416 c0 -12 -6 -35 -14 -52
-42 -97 -59 -332 -31 -432 33 -121 50 -170 62 -190 7 -11 13 -26 13 -35 0 -8
19 -44 42 -80 55 -85 87 -153 94 -202 6 -37 5 -40 -16 -36 -17 2 -38 26 -77
88 -29 47 -59 99 -67 116 -8 17 -22 36 -30 43 -8 7 -20 29 -27 49 -6 20 -15
42 -20 48 -19 24 -48 327 -37 394 15 93 27 148 36 166 13 24 39 92 47 122 8
28 25 29 25 1z m-396 -582 c8 -30 6 -98 -3 -121 -7 -18 -10 -16 -25 14 -20 41
-14 142 9 134 7 -3 16 -15 19 -27z m1196 -583 c0 -14 -4 -23 -10 -19 -5 3 -10
15 -10 26 0 10 5 19 10 19 6 0 10 -12 10 -26z m-862 -32 c4 -27 -14 -29 -28
-3 -14 27 -13 33 8 29 9 -2 18 -13 20 -26z m863 -49 c7 -19 6 -30 -5 -42 -9
-10 -13 -26 -9 -39 4 -16 1 -22 -11 -22 -18 0 -23 54 -6 65 6 4 8 21 4 42 -8
42 11 38 27 -4z m-806 -14 c4 -11 4 -23 0 -27 -7 -7 -25 17 -25 36 0 20 18 14
25 -9z m-228 -166 c21 -10 54 -30 74 -45 20 -16 41 -28 47 -28 5 0 15 -13 22
-30 7 -16 18 -30 26 -30 15 0 39 -38 30 -48 -4 -3 -15 4 -26 15 -11 12 -28 24
-40 28 -11 3 -20 10 -20 15 0 5 -17 19 -37 31 -21 12 -46 30 -55 38 -33 31
-45 39 -63 42 -23 5 -32 29 -11 29 8 0 32 -8 53 -17z m-112 -235 c15 -18 23
-34 16 -36 -11 -4 -61 45 -61 59 0 18 19 8 45 -23z m75 -58 c0 -6 12 -16 28
-22 15 -7 45 -24 67 -39 22 -14 50 -32 62 -40 105 -68 194 -135 207 -154 9
-13 25 -26 36 -30 14 -4 20 -15 20 -36 0 -33 -15 -39 -25 -10 -3 11 -14 22
-24 26 -9 3 -34 21 -55 40 -21 19 -42 35 -46 35 -4 0 -22 14 -40 30 -18 17
-36 30 -41 30 -11 0 -200 142 -218 163 -12 15 -11 17 8 17 11 0 21 -5 21 -10z
m1465 -10 c0 -7 -6 -15 -12 -17 -8 -3 -13 4 -13 17 0 13 5 20 13 18 6 -3 12
-11 12 -18z m282 -428 c7 -12 8 -24 2 -33 -5 -8 -9 -27 -9 -44 0 -16 -7 -43
-15 -59 -8 -15 -15 -38 -15 -50 0 -13 -3 -26 -6 -29 -10 -9 -54 -120 -54 -133
0 -7 -6 -14 -14 -17 -7 -3 -16 -16 -19 -29 -8 -30 -88 -171 -103 -180 -6 -4
-19 -26 -30 -50 -10 -24 -24 -49 -31 -56 -7 -7 -13 -18 -13 -23 0 -5 -14 -40
-31 -77 -17 -37 -42 -91 -56 -120 -13 -30 -28 -75 -33 -100 -10 -54 -27 -122
-43 -172 -6 -19 -15 -60 -19 -90 -11 -75 -17 -293 -8 -305 4 -5 10 -29 14 -52
8 -56 -11 -57 -46 -4 -25 39 -26 44 -22 168 3 70 7 139 11 153 4 14 8 34 9 45
16 109 26 151 59 245 32 92 37 107 46 138 6 17 14 32 19 32 6 0 10 6 10 14 0
19 38 104 50 111 6 3 10 13 10 20 0 8 14 37 30 63 17 27 30 55 30 61 0 7 11
27 25 45 14 18 25 39 25 48 0 8 12 30 26 49 14 19 32 48 39 64 8 17 19 37 25
45 6 8 19 35 30 60 12 25 24 52 29 60 16 28 40 115 47 168 7 56 13 62 31 34z
m-1901 -197 c4 -8 24 -25 45 -37 44 -24 48 -33 19 -41 -11 -3 -20 -10 -20 -15
0 -6 36 -48 80 -93 44 -46 80 -90 80 -97 0 -25 138 -147 202 -179 67 -34 155
-63 186 -63 28 0 138 -36 202 -66 89 -42 132 -83 154 -148 11 -31 28 -71 40
-89 28 -44 86 -164 86 -177 0 -20 -29 -10 -63 23 -18 17 -41 37 -49 42 -120
81 -133 88 -258 151 -104 51 -167 93 -222 148 -41 41 -50 46 -68 36 -11 -6
-20 -14 -20 -18 0 -9 97 -95 154 -137 43 -32 87 -57 226 -127 47 -24 89 -47
95 -51 20 -15 141 -94 151 -98 6 -2 35 -24 66 -49 63 -51 96 -96 80 -112 -11
-11 -52 6 -65 28 -4 8 -22 21 -38 30 -17 8 -50 31 -75 49 -24 19 -90 60 -147
91 -115 65 -252 152 -313 201 -23 18 -43 33 -46 33 -8 0 -86 71 -132 119 -22
25 -62 66 -88 93 -27 26 -48 53 -48 58 0 5 -8 14 -19 19 -19 11 -131 189 -131
210 0 6 -4 19 -9 29 -31 56 -111 231 -111 240 0 17 50 15 56 -3z m381 -344
c80 -40 129 -60 166 -67 21 -3 61 -17 88 -30 27 -13 56 -24 65 -24 9 0 18 -9
21 -19 3 -11 12 -22 22 -24 9 -2 5 -2 -9 0 -53 8 -238 58 -270 72 -60 27 -124
70 -132 90 -9 26 -1 26 49 2z m433 -191 c0 -5 -7 -10 -15 -10 -8 0 -15 5 -15
10 0 6 7 10 15 10 8 0 15 -4 15 -10z m-210 -855 c32 -38 210 -141 275 -158 11
-3 85 -29 165 -57 80 -28 154 -54 165 -57 33 -8 129 -46 139 -55 6 -4 20 -8
33 -8 15 0 23 -6 23 -16 0 -14 -7 -15 -42 -10 -23 4 -47 11 -53 15 -5 5 -23
11 -40 15 -210 48 -264 63 -278 74 -7 5 -28 13 -47 17 -19 4 -58 18 -86 31
-28 13 -54 24 -59 24 -35 0 -215 144 -228 183 -8 21 16 23 33 2z m656 -472
c17 -17 17 -18 -7 -21 -13 -2 -28 -8 -33 -13 -6 -5 -26 -9 -45 -9 -33 0 -68
-15 -185 -78 -36 -20 -85 -60 -194 -159 -19 -18 -39 -33 -43 -33 -15 0 -47
-41 -52 -69 -5 -21 -14 -30 -45 -39 -54 -16 -82 -15 -82 3 0 8 5 15 11 15 6 0
49 39 95 88 197 203 219 223 289 258 39 19 98 39 130 44 33 5 76 14 95 19 49
13 47 13 66 -6z m-386 -293 c0 -5 -10 -10 -22 -10 -19 0 -20 2 -8 10 19 13 30
13 30 0z m959 -142 c36 -11 80 -23 96 -25 17 -3 39 -12 50 -19 11 -8 28 -14
39 -14 23 0 66 -37 66 -57 0 -19 -30 -16 -69 8 -33 20 -90 23 -81 4 5 -12 64
-35 108 -42 17 -3 32 -8 32 -12 0 -4 39 -27 86 -50 72 -36 85 -46 82 -64 -4
-28 -41 -34 -73 -13 -13 9 -32 16 -42 16 -10 0 -27 7 -37 15 -11 8 -25 15 -32
15 -7 0 -33 14 -57 30 -25 17 -50 30 -55 30 -6 0 -15 6 -19 13 -4 8 -23 24
-42 38 -19 13 -44 33 -57 44 -24 21 -73 42 -166 69 -57 17 -71 29 -45 40 22 9
148 -6 216 -26z m-271 -8 c7 -11 19 -20 27 -20 14 0 40 -10 135 -53 25 -11 77
-43 115 -71 93 -69 171 -116 193 -116 9 -1 28 -7 42 -15 14 -8 39 -14 56 -15
18 0 34 -6 37 -13 4 -10 20 -13 59 -10 92 7 108 -30 18 -42 -38 -5 -56 -3 -74
8 -13 9 -33 13 -44 11 -11 -3 -23 -1 -26 5 -4 6 -18 11 -31 11 -12 0 -25 7
-29 15 -3 8 -17 15 -31 15 -34 0 -99 34 -219 114 -54 36 -104 66 -110 66 -6 0
-23 7 -38 14 -31 17 -177 54 -226 58 -30 3 -32 4 -19 22 13 18 63 33 122 35
20 1 34 -6 43 -19z"/>
<path d="M2476 5925 c-11 -26 -13 -43 -5 -62 5 -14 9 -42 8 -62 -2 -39 9 -100
21 -116 4 -5 11 -29 15 -52 4 -24 10 -45 15 -48 4 -3 11 -21 14 -40 8 -41 36
-49 36 -9 0 28 -31 166 -56 253 -9 30 -16 78 -15 107 0 65 -13 77 -33 29z"/>
<path d="M2754 6585 c-3 -7 0 -23 6 -35 6 -11 22 -53 35 -93 13 -40 28 -83 33
-97 32 -80 42 -139 42 -244 0 -92 -4 -120 -20 -154 -11 -22 -20 -47 -20 -54 0
-7 -11 -35 -25 -62 -14 -27 -25 -56 -25 -64 0 -9 -6 -23 -13 -31 -17 -20 -47
-100 -47 -126 0 -10 -7 -26 -16 -36 -8 -9 -11 -20 -6 -23 5 -3 18 5 29 17 29
33 143 281 143 311 0 15 7 29 15 32 8 4 15 14 15 24 0 22 16 35 25 20 27 -43
27 75 0 131 -8 18 -9 32 -2 44 6 12 4 35 -8 75 -10 32 -15 64 -13 71 12 35
-95 295 -124 302 -11 3 -21 0 -24 -8z"/>
<path d="M2930 6284 c0 -9 10 -26 22 -39 23 -24 50 -104 50 -145 -1 -14 -3
-56 -5 -95 -2 -38 -5 -85 -6 -102 0 -20 -6 -33 -14 -33 -10 0 -13 -18 -14 -66
0 -36 -6 -71 -12 -77 -6 -6 -11 -18 -11 -28 0 -25 -154 -359 -170 -369 -13 -8
-70 -161 -70 -185 1 -17 3 -16 16 8 8 15 19 27 24 27 6 0 10 9 10 21 0 12 14
41 30 66 17 24 30 50 30 57 0 8 7 19 15 26 8 7 15 19 15 26 0 8 4 14 9 14 8 0
44 69 92 180 9 19 24 67 33 105 9 39 22 84 27 102 7 23 7 39 -2 54 -9 18 -9
25 5 34 9 7 16 24 16 39 0 34 18 34 26 0 9 -36 -3 -195 -16 -208 -5 -5 -10
-24 -10 -40 0 -17 -8 -52 -17 -79 -12 -34 -14 -50 -6 -58 14 -14 40 33 61 111
22 82 27 285 8 329 -8 20 -17 69 -21 110 -3 41 -9 79 -14 85 -4 6 -11 29 -14
50 -9 59 -87 130 -87 80z"/>
<path d="M2910 5911 c0 -6 5 -13 10 -16 7 -4 5 -14 -5 -28 -8 -12 -15 -32 -15
-44 0 -23 -44 -115 -95 -198 -13 -22 -24 -48 -25 -57 0 -9 -6 -21 -13 -25 -8
-4 -17 -16 -20 -26 -5 -13 -13 -17 -28 -12 -19 6 -21 4 -14 -11 16 -38 17 -66
5 -89 -7 -13 -10 -29 -7 -37 2 -7 8 -2 12 15 4 15 11 27 15 27 5 0 20 24 34
53 15 28 42 79 62 112 92 155 104 182 104 240 0 30 5 55 10 55 15 0 12 19 -4
36 -17 16 -26 18 -26 5z"/>
<path d="M2843 5063 c-3 -10 -12 -22 -20 -26 -15 -9 -18 -57 -3 -57 19 0 55
86 40 95 -6 4 -13 -2 -17 -12z"/>
<path d="M3580 5025 c-9 -11 -11 -31 -5 -73 14 -115 17 -232 5 -232 -7 0 -14
9 -17 20 -8 32 -27 18 -29 -21 -3 -84 -16 -189 -25 -195 -5 -3 -9 -16 -9 -29
0 -26 -22 -100 -46 -152 -8 -17 -14 -40 -14 -51 0 -11 -6 -22 -14 -25 -7 -3
-18 -19 -24 -35 -10 -28 -9 -29 14 -18 13 6 24 17 24 24 0 7 10 29 23 50 22
35 44 93 82 212 9 31 18 86 19 122 2 75 13 98 22 50 4 -19 13 -32 22 -32 11 0
13 9 9 39 -2 22 -1 43 4 48 5 5 11 61 13 124 4 147 -18 218 -54 174z"/>
<path d="M2200 4200 c-13 -8 -13 -12 1 -36 14 -23 84 -72 129 -90 71 -28 269
-132 269 -141 1 -7 10 -13 21 -13 39 0 18 31 -54 80 -44 30 -69 44 -151 88
-11 5 -31 15 -45 21 -54 23 -113 61 -127 80 -16 23 -21 25 -43 11z"/>
<path d="M3355 4151 c-6 -11 9 -23 19 -14 9 9 7 23 -3 23 -6 0 -12 -4 -16 -9z"/>
<path d="M3975 3836 c-9 -14 -21 -60 -27 -103 -10 -76 -8 -120 12 -293 12
-105 -1 -226 -36 -326 -13 -39 -24 -88 -23 -110 0 -21 3 -32 6 -24 3 8 13 23
21 33 16 18 29 50 64 152 25 77 33 209 18 305 -6 41 -11 89 -10 107 0 17 -4
52 -10 78 -8 35 -8 51 1 61 15 19 39 18 39 -1 0 -19 50 -122 91 -190 19 -30
35 -73 40 -110 6 -33 14 -85 19 -116 17 -94 11 -181 -19 -323 -20 -91 -85
-264 -131 -351 -72 -133 -120 -236 -149 -315 -21 -56 -40 -241 -28 -270 5 -14
13 -34 18 -45 4 -11 7 -42 5 -70 -3 -55 10 -90 44 -120 l23 -20 -6 58 c-7 68
9 181 31 223 5 11 27 54 47 97 21 43 55 97 77 121 21 24 38 49 38 55 0 5 6 14
14 18 45 27 166 251 166 309 0 12 4 25 9 28 5 3 12 27 16 52 5 39 3 50 -15 69
l-21 22 21 79 c12 46 20 109 20 156 0 96 17 104 42 19 15 -50 16 -72 8 -137
-10 -78 -1 -144 20 -144 18 0 21 23 21 182 0 142 -2 171 -21 223 -12 32 -30
71 -41 86 -10 15 -19 31 -19 36 -1 18 -47 101 -77 137 -23 29 -37 37 -52 33
-23 -6 -61 33 -61 62 0 10 -10 31 -22 48 -19 25 -54 91 -117 222 -12 25 -29
23 -46 -3z m275 -447 c0 -6 6 -25 14 -42 39 -89 49 -246 22 -362 -19 -81 -41
-154 -57 -191 -11 -22 -19 -44 -19 -49 0 -4 -11 -23 -25 -41 -14 -18 -25 -36
-25 -41 0 -5 -12 -26 -27 -48 -33 -48 -69 -110 -84 -145 -6 -14 -17 -38 -24
-55 -8 -16 -16 -48 -18 -70 -6 -50 -38 -158 -63 -210 -10 -22 -21 -62 -24 -89
-6 -57 -24 -71 -33 -26 -7 35 10 185 24 211 5 10 9 25 9 34 0 9 9 37 21 63 11
26 24 56 28 67 12 28 75 156 121 245 22 41 40 80 40 85 0 6 7 23 15 38 8 16
29 74 46 130 30 94 32 113 33 247 0 80 -3 165 -6 190 -3 25 -10 68 -13 95 l-8
50 27 -38 c14 -21 26 -43 26 -48z m60 -615 c0 -8 -7 -17 -15 -20 -8 -4 -15
-14 -15 -24 0 -22 -30 -121 -42 -136 -4 -6 -20 -33 -34 -60 -14 -27 -29 -51
-33 -54 -4 -3 -31 -42 -60 -87 -54 -83 -67 -95 -77 -70 -7 18 83 201 122 248
26 32 94 150 94 164 0 8 5 15 10 15 6 0 15 11 22 25 11 25 28 25 28 -1z"/>
<path d="M4046 3543 c-10 -11 -7 -46 8 -74 23 -44 44 -373 25 -385 -5 -3 -9
-29 -9 -58 0 -28 -5 -57 -11 -63 -6 -6 -15 -30 -20 -53 -8 -37 -42 -120 -69
-170 -11 -21 -72 -143 -105 -210 -31 -64 -47 -166 -24 -158 7 2 16 18 20 34 3
16 10 38 16 49 6 11 20 40 32 65 12 25 39 79 60 120 49 97 75 155 91 205 7 22
17 49 21 60 5 11 18 56 29 99 25 100 28 290 5 374 -44 159 -53 181 -69 165z"/>
<path d="M4550 2880 c0 -10 6 -34 14 -52 45 -107 52 -253 17 -357 -11 -35 -25
-69 -30 -75 -23 -28 -145 -264 -167 -321 -23 -61 -43 -142 -50 -200 -3 -33
-11 -68 -16 -78 -5 -10 -9 -88 -9 -173 0 -124 3 -161 15 -180 9 -13 16 -30 16
-38 0 -8 11 -27 24 -41 21 -22 30 -25 60 -19 32 5 36 4 36 -14 0 -12 5 -24 11
-27 6 -4 9 -23 7 -43 -2 -27 1 -38 13 -40 28 -5 46 39 58 143 6 55 16 109 20
120 21 48 41 107 41 120 0 8 10 30 23 48 12 19 31 50 42 68 11 18 33 54 48 79
25 40 46 83 93 187 8 17 14 37 14 45 0 8 6 20 13 26 8 9 12 50 12 130 0 96 -4
127 -21 172 -28 69 -90 190 -109 209 -12 13 -16 11 -25 -13 -8 -22 -6 -36 10
-71 11 -24 20 -51 20 -59 0 -8 4 -18 10 -21 11 -7 45 -122 54 -183 6 -42 -10
-167 -24 -187 -4 -5 -17 -39 -30 -75 -13 -36 -34 -82 -47 -102 -13 -21 -23
-40 -23 -42 0 -3 -13 -25 -30 -49 -16 -25 -30 -48 -30 -53 0 -4 -6 -15 -14
-23 -14 -17 -56 -143 -56 -171 0 -9 -4 -20 -9 -25 -5 -6 -11 -26 -13 -45 -4
-50 -23 -34 -23 21 1 49 20 121 42 154 7 11 13 28 13 38 0 10 9 31 19 46 36
51 71 124 101 213 27 82 30 118 10 118 -15 0 -40 -31 -46 -58 -18 -78 -34
-117 -117 -277 -33 -64 -57 -161 -57 -232 0 -48 3 -58 30 -81 17 -15 30 -36
30 -49 0 -32 -16 -29 -28 6 -7 19 -19 31 -33 33 -17 2 -25 12 -30 36 -4 19
-12 39 -18 45 -14 14 -14 47 0 47 8 0 10 16 6 47 -6 57 20 304 33 317 6 6 10
19 10 31 0 11 6 30 13 42 6 12 30 57 51 100 21 43 47 94 58 114 27 53 88 227
88 250 0 12 -10 23 -25 29 -20 8 -24 13 -17 27 11 21 26 111 23 135 -1 10 2
26 8 36 10 18 7 33 -36 182 -15 54 -35 80 -60 80 -7 0 -13 -9 -13 -20z m60
-520 c0 -11 -9 -36 -19 -57 -11 -21 -38 -78 -61 -128 -98 -210 -111 -235 -120
-235 -6 0 -10 10 -10 22 0 26 58 177 77 199 7 8 13 18 13 22 0 9 62 134 85
174 21 33 35 34 35 3z m-219 -537 c-9 -17 -10 -17 -16 0 -4 9 -4 25 0 35 6 16
7 16 16 0 7 -12 7 -24 0 -35z m-13 -55 c7 -7 12 -16 12 -20 0 -15 -15 -8 -28
12 -13 22 -3 27 16 8z m-8 -103 c0 -36 7 -82 15 -102 11 -25 12 -40 5 -47 -13
-13 -13 -63 0 -71 13 -8 13 -65 0 -65 -5 0 -13 12 -16 27 -4 15 -13 33 -19 40
-18 18 -17 283 1 283 11 0 14 -17 14 -65z"/>
<path d="M3796 2295 c-24 -36 -29 -275 -7 -283 11 -4 13 5 8 44 -3 27 -1 69 4
94 23 105 28 144 20 157 -6 12 -11 9 -25 -12z"/>
<path d="M5016 1977 c-14 -11 -19 -29 -20 -88 -2 -68 -6 -80 -37 -124 -42 -60
-112 -132 -162 -169 -97 -71 -169 -169 -191 -261 -4 -17 -9 -38 -12 -47 -4
-14 -2 -15 20 -5 17 8 26 20 26 35 0 12 4 22 9 22 5 0 21 24 35 53 24 51 69
106 100 124 25 14 186 166 186 175 0 5 13 26 29 46 37 46 60 112 62 179 3 70
-9 86 -45 60z"/>
<path d="M3617 1904 c-13 -13 -7 -24 14 -24 11 0 19 5 17 12 -5 14 -22 21 -31
12z"/>
<path d="M3658 1723 c-10 -2 -18 -13 -18 -24 0 -16 6 -20 28 -18 15 2 33 0 40
-5 16 -9 54 2 47 15 -4 5 -15 9 -26 9 -11 0 -22 7 -25 15 -6 15 -14 17 -46 8z"/>
</g>
</svg>
