<?xml version="1.0" standalone="no"?>
<!DOCTYPE svg PUBLIC "-//W3C//DTD SVG 20010904//EN"
 "http://www.w3.org/TR/2001/REC-SVG-20010904/DTD/svg10.dtd">
<svg version="1.0" xmlns="http://www.w3.org/2000/svg"
 width="300.000000pt" height="290.000000pt" viewBox="0 0 300.000000 290.000000"
 preserveAspectRatio="xMidYMid meet">
<metadata>
Created by potrace 1.10, written by Peter Selinger 2001-2011
</metadata>
<g transform="translate(0.000000,290.000000) scale(0.100000,-0.100000)"
fill="#000000" stroke="none">
<path d="M440 2460 c-20 -20 -20 -33 -20 -1100 0 -1067 0 -1080 20 -1100 20
-20 33 -20 1098 -20 959 0 1080 2 1100 16 l22 15 0 1088 c0 1041 -1 1089 -18
1104 -17 16 -108 17 -1100 17 -1069 0 -1082 0 -1102 -20z m2112 -292 c2 -112
2 -566 0 -1011 l-2 -807 -1010 0 -1010 0 0 1010 0 1010 1010 0 1010 0 2 -202z"/>
<path d="M800 1984 c0 -9 23 -47 50 -84 l50 -67 0 -420 0 -419 -80 -99 c-44
-55 -80 -103 -80 -107 0 -15 50 -19 234 -16 132 2 191 6 193 15 2 6 -25 46
-59 90 -35 43 -72 89 -81 103 -15 22 -17 61 -17 369 0 195 4 341 9 336 4 -6
102 -208 216 -450 114 -242 212 -446 217 -452 12 -14 56 -17 75 -5 12 8 113
255 295 724 45 115 85 205 90 202 10 -6 9 -729 0 -764 -2 -8 -37 -42 -78 -75
-118 -97 -123 -95 211 -95 239 0 287 2 291 14 3 8 -16 44 -45 82 l-51 67 0
458 0 458 50 60 c28 33 50 67 50 76 0 13 -28 15 -218 15 l-219 0 -103 -262
c-57 -145 -125 -316 -150 -381 -26 -65 -51 -117 -56 -115 -5 2 -89 173 -188
381 l-179 377 -213 0 c-191 0 -214 -2 -214 -16z m457 -299 c52 -110 138 -289
189 -399 l95 -199 -23 -63 c-13 -35 -25 -64 -29 -64 -3 0 -25 42 -49 93 -24
50 -73 153 -108 227 -187 396 -282 599 -282 605 0 3 25 5 56 3 l56 -3 95 -200z
m878 -300 l0 -505 -60 0 -60 0 3 492 c1 271 4 499 7 506 3 7 24 12 57 12 l53
0 0 -505z"/>
</g>
</svg>
