<?xml version="1.0" standalone="no"?>
<!DOCTYPE svg PUBLIC "-//W3C//DTD SVG 20010904//EN"
 "http://www.w3.org/TR/2001/REC-SVG-20010904/DTD/svg10.dtd">
<svg version="1.0" xmlns="http://www.w3.org/2000/svg"
 width="300.000000pt" height="242.000000pt" viewBox="0 0 300.000000 242.000000"
 preserveAspectRatio="xMidYMid meet">
<metadata>
Created by potrace 1.10, written by Peter Selinger 2001-2011
</metadata>
<g transform="translate(0.000000,242.000000) scale(0.100000,-0.100000)"
fill="#000000" stroke="none">
<path d="M1881 2074 c-134 -36 -260 -138 -319 -255 -38 -79 -51 -135 -52 -221
l0 -68 -44 0 c-59 0 -217 41 -296 77 -143 65 -300 177 -436 309 -48 46 -95 84
-105 84 -25 0 -54 -47 -80 -130 -40 -124 -24 -277 41 -387 25 -42 25 -41 -5
-35 -41 7 -55 -13 -55 -82 0 -118 49 -236 131 -318 48 -48 49 -49 33 -74 -15
-23 -15 -28 1 -72 44 -115 127 -208 230 -258 38 -19 75 -34 82 -34 56 0 -71
-70 -182 -101 -66 -18 -106 -22 -225 -22 -83 1 -150 -4 -157 -9 -27 -22 -14
-56 35 -91 255 -187 696 -250 1047 -150 104 30 232 83 328 137 374 208 607
602 643 1087 l7 93 84 85 c87 88 143 163 143 191 0 39 -52 52 -100 25 -40 -23
-41 -18 -9 34 49 78 50 161 2 161 -8 0 -52 -18 -96 -40 -49 -24 -104 -43 -135
-47 -48 -5 -57 -3 -95 24 -130 94 -278 124 -416 87z m179 -84 c71 -13 145 -49
200 -95 48 -40 57 -41 195 -20 l40 6 -53 -48 c-51 -47 -62 -72 -43 -102 9 -14
84 -17 126 -5 12 4 -8 -23 -47 -63 -63 -63 -68 -72 -68 -111 0 -208 -69 -481
-168 -662 -220 -402 -708 -649 -1190 -601 -128 13 -246 39 -331 73 l-54 22
109 18 c124 21 234 68 321 137 70 55 89 85 75 115 -8 19 -21 25 -64 31 -111
15 -215 73 -268 150 -16 24 -30 46 -30 49 0 3 12 6 28 6 40 0 98 18 112 35 22
26 4 62 -37 76 -118 38 -224 133 -262 234 -26 69 -27 89 -4 81 9 -4 36 -10 60
-13 47 -6 93 15 93 43 0 9 -23 41 -51 72 -77 87 -121 185 -127 280 -4 74 10
162 26 162 5 0 24 -16 43 -36 103 -108 307 -246 453 -307 146 -61 373 -103
436 -79 25 9 25 11 25 128 1 151 21 207 105 297 64 69 126 105 210 123 71 16
77 16 140 4z"/>
</g>
</svg>
